<?xml version="1.0" standalone="no"?>
<!DOCTYPE svg PUBLIC "-//W3C//DTD SVG 20010904//EN"
 "http://www.w3.org/TR/2001/REC-SVG-20010904/DTD/svg10.dtd">
<svg version="1.0" xmlns="http://www.w3.org/2000/svg"
 width="558.000000pt" height="558.000000pt" viewBox="0 0 558.000000 558.000000"
 preserveAspectRatio="xMidYMid meet">
<metadata>
Created by potrace 1.11, written by Peter Selinger 2001-2013
</metadata>
<g transform="translate(0.000000,558.000000) scale(0.100000,-0.100000)"
fill="#000000" stroke="none">
<path d="M2370 5216 c0 -15 -42 -26 -101 -26 -28 0 -39 -4 -39 -15 0 -10 -11
-15 -35 -15 -28 0 -35 -4 -35 -20 0 -11 -7 -20 -15 -20 -10 0 -15 -10 -15 -30
0 -20 -5 -30 -15 -30 -17 0 -21 -36 -4 -42 6 -2 14 -27 17 -56 3 -35 9 -52 18
-52 9 0 14 -11 14 -30 0 -20 5 -30 15 -30 8 0 17 -14 21 -35 4 -25 11 -35 25
-35 11 0 19 -6 19 -14 0 -8 7 -16 15 -20 8 -3 15 -12 15 -21 0 -8 7 -15 15
-15 8 0 15 -6 15 -14 0 -7 9 -16 20 -19 11 -3 20 -12 20 -21 0 -9 7 -16 15
-16 8 0 15 -9 15 -20 0 -11 -6 -20 -14 -20 -9 0 -15 -16 -19 -47 -3 -26 -10
-49 -16 -51 -6 -2 -13 -19 -17 -38 -3 -19 -12 -34 -20 -34 -9 0 -14 -12 -14
-35 0 -28 -4 -35 -20 -35 -13 0 -20 -7 -20 -20 0 -19 -7 -20 -155 -20 -131 0
-155 -2 -155 -15 0 -13 -32 -15 -227 -15 -126 0 -252 -3 -280 -6 -50 -6 -53
-8 -53 -35 0 -26 3 -29 35 -29 23 0 35 -5 35 -14 0 -8 15 -17 35 -20 21 -4 35
-13 35 -21 0 -10 11 -15 35 -15 24 0 35 -5 35 -15 0 -10 10 -15 28 -15 42 0
72 -11 72 -26 0 -10 14 -14 50 -14 37 0 50 -4 50 -14 0 -10 17 -17 55 -21 37
-5 55 -12 55 -21 0 -9 12 -14 35 -14 21 0 35 -5 35 -12 0 -7 3 -23 6 -35 6
-21 3 -23 -35 -23 -29 0 -41 -4 -41 -14 0 -8 -13 -17 -30 -21 -16 -4 -30 -13
-30 -21 0 -9 -11 -14 -34 -14 -25 0 -35 -5 -39 -20 -3 -11 -12 -20 -21 -20 -9
0 -16 -7 -16 -15 0 -10 -11 -15 -35 -15 -28 0 -35 -4 -35 -20 0 -11 -7 -20
-15 -20 -8 0 -15 -7 -15 -15 0 -8 -9 -15 -20 -15 -11 0 -20 -7 -20 -15 0 -8
-7 -15 -16 -15 -9 0 -18 -9 -21 -20 -3 -11 -12 -20 -19 -20 -8 0 -14 -7 -14
-15 0 -8 -14 -17 -35 -21 -20 -3 -35 -12 -35 -20 0 -8 -7 -14 -15 -14 -8 0
-15 -9 -15 -20 0 -13 -7 -20 -20 -20 -11 0 -20 -7 -20 -15 0 -8 -7 -15 -15
-15 -8 0 -15 -9 -15 -20 0 -11 -9 -28 -20 -37 -11 -10 -20 -23 -20 -30 0 -7
-7 -13 -15 -13 -8 0 -15 -9 -15 -20 0 -13 -7 -20 -20 -20 -16 0 -20 -7 -20
-30 0 -20 -5 -30 -15 -30 -8 0 -15 -8 -15 -19 0 -10 -9 -21 -20 -24 -15 -4
-20 -14 -20 -36 0 -24 -4 -31 -20 -31 -11 0 -28 -9 -37 -20 -10 -11 -23 -20
-30 -20 -7 0 -13 -7 -13 -15 0 -8 -9 -15 -20 -15 -13 0 -20 -7 -20 -20 0 -13
-7 -20 -20 -20 -11 0 -20 -7 -20 -15 0 -8 -7 -15 -15 -15 -8 0 -15 -6 -15 -14
0 -8 -13 -17 -30 -21 -16 -4 -30 -13 -30 -21 0 -8 -9 -14 -20 -14 -13 0 -20
-7 -20 -20 0 -11 -7 -20 -15 -20 -8 0 -15 -7 -15 -15 0 -8 -9 -15 -20 -15 -13
0 -20 -7 -20 -20 0 -11 -6 -20 -14 -20 -8 0 -17 -13 -21 -30 -4 -16 -13 -30
-21 -30 -8 0 -14 -9 -14 -20 0 -13 -7 -20 -20 -20 -13 0 -20 -7 -20 -20 0 -11
-7 -20 -15 -20 -8 0 -15 -7 -15 -15 0 -8 -6 -15 -14 -15 -8 0 -17 -15 -20 -35
-4 -21 -13 -35 -21 -35 -8 0 -15 -9 -15 -20 0 -11 -7 -20 -15 -20 -8 0 -15 -7
-15 -15 0 -8 -9 -15 -20 -15 -16 0 -20 -7 -20 -35 0 -24 -5 -35 -15 -35 -8 0
-15 -9 -15 -20 0 -13 -7 -20 -20 -20 -16 0 -20 -7 -20 -35 0 -24 -5 -35 -15
-35 -12 0 -15 -14 -15 -65 0 -51 3 -65 15 -65 10 0 15 -11 15 -35 0 -24 5 -35
15 -35 8 0 17 -14 21 -35 3 -20 12 -35 20 -35 9 0 14 -12 14 -35 0 -28 4 -35
20 -35 13 0 20 -7 20 -20 0 -11 7 -20 15 -20 10 0 15 -10 15 -30 0 -21 5 -30
16 -30 9 0 18 -9 21 -20 3 -11 12 -20 19 -20 8 0 14 -9 14 -20 0 -11 9 -28 20
-37 11 -10 20 -23 20 -30 0 -7 7 -13 15 -13 8 0 15 -9 15 -20 0 -11 7 -20 15
-20 8 0 15 -7 15 -15 0 -9 6 -18 14 -21 8 -3 18 -19 21 -35 4 -16 13 -29 22
-29 8 0 17 -9 20 -20 3 -11 12 -20 19 -20 8 0 14 -7 14 -15 0 -8 7 -15 15 -15
8 0 15 -9 15 -20 0 -13 7 -20 20 -20 11 0 20 -7 20 -15 0 -8 7 -15 15 -15 8 0
15 -9 15 -20 0 -13 7 -20 20 -20 11 0 20 -7 20 -15 0 -8 7 -15 15 -15 8 0 15
-9 15 -20 0 -13 7 -20 20 -20 11 0 20 -6 20 -14 0 -7 9 -16 20 -19 11 -3 20
-12 20 -21 0 -9 7 -16 15 -16 10 0 15 -11 15 -35 0 -24 5 -35 15 -35 8 0 15
-9 15 -20 0 -11 9 -28 20 -37 11 -10 20 -23 20 -30 0 -7 7 -13 15 -13 8 0 15
-9 15 -20 0 -11 7 -20 15 -20 8 0 17 -14 21 -35 3 -20 12 -35 20 -35 8 0 14
-7 14 -15 0 -8 9 -15 20 -15 13 0 20 -7 20 -20 0 -11 7 -20 15 -20 8 0 15 -6
15 -14 0 -7 9 -16 20 -19 11 -3 20 -12 20 -21 0 -9 7 -16 15 -16 8 0 15 -6 15
-14 0 -7 9 -16 20 -19 11 -3 20 -12 20 -21 0 -9 7 -16 15 -16 8 0 15 -7 15
-15 0 -8 9 -15 20 -15 13 0 20 -7 20 -20 0 -11 7 -20 15 -20 8 0 15 -6 15 -14
0 -8 15 -17 35 -20 21 -4 35 -13 35 -21 0 -8 9 -15 20 -15 11 0 20 -6 20 -14
0 -8 13 -17 29 -21 16 -3 32 -13 35 -21 3 -8 12 -14 21 -14 8 0 15 -7 15 -15
0 -10 11 -15 35 -15 24 0 35 -5 35 -15 0 -8 14 -17 35 -21 20 -3 35 -12 35
-20 0 -9 12 -14 35 -14 23 0 35 -5 35 -14 0 -15 30 -26 73 -26 17 0 27 -5 27
-15 0 -10 11 -15 35 -15 24 0 35 -5 35 -15 0 -9 9 -15 24 -15 45 0 86 -13 86
-26 0 -11 17 -14 70 -14 56 0 70 -3 70 -15 0 -11 11 -15 43 -15 101 0 197 -13
197 -26 0 -11 32 -14 160 -14 128 0 160 3 160 14 0 13 96 26 197 26 32 0 43 4
43 15 0 12 14 15 70 15 53 0 70 3 70 14 0 9 18 16 50 20 34 5 50 11 50 21 0
11 13 15 50 15 36 0 50 4 50 14 0 9 15 17 40 21 25 4 40 12 40 21 0 9 12 14
35 14 24 0 35 5 35 15 0 8 14 17 35 21 20 3 35 12 35 20 0 9 11 14 30 14 20 0
30 5 30 15 0 8 8 15 18 15 10 0 25 9 35 20 9 11 26 20 37 20 11 0 20 7 20 15
0 8 7 15 15 15 9 0 18 6 21 14 3 8 19 18 35 21 16 4 29 13 29 21 0 8 9 14 20
14 13 0 20 7 20 20 0 11 7 20 15 20 8 0 15 7 15 15 0 8 9 15 20 15 13 0 20 7
20 20 0 11 7 20 15 20 8 0 15 7 15 15 0 8 9 15 20 15 13 0 20 7 20 20 0 11 7
20 15 20 8 0 15 7 15 15 0 8 9 15 20 15 13 0 20 7 20 20 0 11 7 20 15 20 8 0
15 6 15 14 0 7 9 16 20 19 15 4 20 14 20 36 0 21 5 31 15 31 8 0 15 7 15 16 0
9 9 18 20 21 14 4 20 14 20 34 0 19 5 29 15 29 8 0 15 9 15 20 0 13 7 20 20
20 16 0 20 7 20 35 0 23 5 35 14 35 8 0 17 15 20 35 4 21 13 35 21 35 8 0 15
6 15 14 0 7 9 16 20 19 11 3 20 12 20 21 0 9 7 16 15 16 8 0 15 6 15 14 0 7 9
16 20 19 11 3 20 12 20 21 0 9 7 16 15 16 8 0 15 7 15 15 0 8 7 15 15 15 8 0
15 9 15 20 0 13 7 20 20 20 13 0 20 7 20 20 0 11 7 20 15 20 8 0 15 7 15 15 0
8 6 15 14 15 7 0 16 9 19 20 3 11 12 20 21 20 11 0 16 9 16 30 0 21 5 30 16
30 9 0 18 9 21 20 3 11 12 20 19 20 8 0 14 9 14 20 0 11 9 28 20 37 11 10 20
23 20 30 0 7 7 13 15 13 10 0 15 10 15 34 0 25 5 35 20 39 11 3 20 12 20 21 0
9 7 16 15 16 10 0 15 11 15 35 0 24 5 35 14 35 8 0 17 13 21 30 4 16 13 30 21
30 8 0 14 10 14 25 0 16 6 25 15 25 9 0 15 9 15 23 0 38 12 67 26 67 8 0 14 9
14 20 0 13 -7 20 -20 20 -13 0 -20 7 -20 20 0 11 -7 20 -15 20 -10 0 -15 11
-15 35 0 24 -5 35 -14 35 -8 0 -17 13 -21 30 -4 16 -13 30 -21 30 -8 0 -14 9
-14 20 0 11 -7 20 -15 20 -8 0 -15 7 -15 15 0 9 -6 18 -14 21 -8 3 -18 19 -21
35 -4 16 -13 29 -21 29 -8 0 -14 9 -14 20 0 13 -7 20 -20 20 -16 0 -20 7 -20
35 0 28 -4 35 -20 35 -11 0 -20 7 -20 15 0 8 -7 15 -15 15 -8 0 -15 9 -15 20
0 13 -7 20 -20 20 -11 0 -20 7 -20 15 0 8 -7 15 -15 15 -8 0 -15 9 -15 20 0
11 -7 20 -15 20 -8 0 -15 7 -15 15 0 8 -9 15 -20 15 -13 0 -20 7 -20 20 0 11
-7 20 -15 20 -8 0 -15 7 -15 15 0 8 -9 15 -20 15 -11 0 -20 6 -20 14 0 8 -13
17 -29 21 -17 3 -31 14 -34 26 -3 10 -12 19 -21 19 -9 0 -16 7 -16 15 0 8 -9
15 -20 15 -11 0 -20 7 -20 15 0 8 -7 15 -15 15 -8 0 -15 9 -15 20 0 11 -7 20
-15 20 -8 0 -17 14 -21 35 -3 20 -12 35 -20 35 -8 0 -14 6 -14 13 0 7 -9 20
-20 30 -11 9 -20 26 -20 37 0 11 -7 20 -15 20 -8 0 -15 9 -15 20 0 11 -6 20
-14 20 -7 0 -16 9 -19 20 -3 11 -12 20 -21 20 -11 0 -16 9 -16 30 0 23 -4 30
-20 30 -11 0 -20 7 -20 15 0 8 -7 15 -15 15 -8 0 -15 9 -15 20 0 13 -7 20 -20
20 -11 0 -20 7 -20 15 0 8 -7 15 -15 15 -8 0 -15 9 -15 20 0 16 -7 20 -35 20
-28 0 -35 4 -35 20 0 11 -7 20 -15 20 -10 0 -15 11 -15 35 0 24 5 35 15 35 11
0 15 12 15 50 0 36 4 52 15 56 9 4 15 19 15 39 0 53 12 95 26 95 11 0 14 25
14 120 0 98 -3 120 -15 120 -8 0 -17 14 -21 35 -3 20 -12 35 -20 35 -8 0 -14
9 -14 20 0 11 -7 20 -15 20 -8 0 -15 6 -15 13 0 7 -9 20 -20 30 -11 9 -20 26
-20 37 0 13 -7 20 -20 20 -13 0 -20 7 -20 20 0 11 -7 20 -15 20 -8 0 -15 7
-15 15 0 8 -9 15 -20 15 -13 0 -20 7 -20 20 0 11 -7 20 -15 20 -8 0 -15 7 -15
15 0 8 -9 15 -20 15 -11 0 -28 9 -37 20 -10 11 -23 20 -30 20 -7 0 -13 7 -13
15 0 8 -9 15 -20 15 -13 0 -20 7 -20 20 0 13 -7 20 -20 20 -11 0 -20 6 -20 14
0 8 -13 17 -29 21 -16 3 -32 13 -35 21 -3 8 -12 14 -21 14 -8 0 -15 6 -15 14
0 8 -15 17 -35 20 -21 4 -35 13 -35 21 0 8 -9 15 -20 15 -11 0 -20 7 -20 15 0
10 -10 15 -30 15 -19 0 -30 5 -30 14 0 8 -15 17 -35 20 -21 4 -35 13 -35 21 0
10 -11 15 -35 15 -23 0 -35 5 -35 14 0 8 -15 17 -35 20 -19 4 -35 13 -35 20 0
8 -17 15 -47 19 -27 3 -50 11 -55 21 -5 9 -22 16 -38 16 -20 0 -30 5 -30 15 0
11 -11 15 -40 15 -29 0 -40 4 -40 15 0 10 -10 15 -27 15 -42 0 -73 11 -73 25
0 9 -22 14 -67 17 -39 2 -68 9 -71 16 -2 7 -24 12 -55 12 -77 0 -127 11 -127
26 0 11 -20 14 -85 14 -65 0 -85 -3 -85 -14z m770 -1640 c0 -10 24 -15 101
-18 68 -2 103 -8 108 -17 5 -8 36 -15 75 -18 46 -4 66 -10 66 -19 0 -10 14
-14 50 -14 35 0 52 -5 58 -16 5 -10 28 -18 55 -21 31 -4 47 -10 47 -19 0 -9
12 -14 35 -14 23 0 35 -5 35 -14 0 -15 30 -26 73 -26 16 0 27 -5 27 -14 0 -8
15 -17 35 -20 21 -4 35 -13 35 -21 0 -8 9 -15 20 -15 11 0 20 -7 20 -15 0 -10
11 -15 35 -15 24 0 35 -5 35 -14 0 -8 14 -17 30 -21 17 -4 30 -13 30 -21 0 -8
9 -14 20 -14 11 0 20 -6 20 -14 0 -8 15 -17 35 -20 21 -4 35 -13 35 -21 0 -8
9 -15 20 -15 11 0 20 -6 20 -14 0 -8 14 -17 30 -21 17 -4 30 -13 30 -21 0 -8
9 -14 20 -14 13 0 20 -7 20 -20 0 -11 7 -20 15 -20 8 0 15 -7 15 -15 0 -8 9
-15 20 -15 11 0 20 -7 20 -15 0 -8 7 -15 16 -15 9 0 18 -9 21 -20 3 -11 12
-20 19 -20 8 0 14 -7 14 -15 0 -8 7 -15 16 -15 9 0 18 -9 21 -20 3 -11 12 -20
19 -20 8 0 14 -7 14 -15 0 -8 7 -15 15 -15 8 0 15 -9 15 -20 0 -13 7 -20 20
-20 13 0 20 -7 20 -20 0 -11 6 -20 14 -20 8 0 17 -13 21 -30 4 -16 13 -30 21
-30 8 0 14 -9 14 -20 0 -11 7 -20 15 -20 8 0 15 -6 15 -13 0 -7 9 -20 20 -30
11 -9 20 -26 20 -37 0 -11 7 -20 15 -20 8 0 15 -9 15 -20 0 -11 7 -20 15 -20
8 0 17 -14 21 -35 3 -19 12 -35 19 -35 7 0 16 -16 19 -35 5 -23 13 -35 23 -35
13 0 15 -9 10 -47 -3 -27 -11 -50 -21 -55 -9 -5 -16 -22 -16 -38 0 -20 -5 -30
-15 -30 -8 0 -15 -9 -15 -20 0 -11 -7 -20 -15 -20 -8 0 -17 -14 -21 -35 -3
-20 -12 -35 -20 -35 -8 0 -14 -7 -14 -15 0 -9 -6 -18 -14 -21 -8 -3 -18 -19
-21 -35 -4 -16 -13 -29 -21 -29 -8 0 -14 -9 -14 -20 0 -11 -6 -20 -14 -20 -7
0 -16 -9 -19 -20 -3 -11 -12 -20 -20 -20 -9 0 -18 -13 -22 -30 -4 -17 -13 -30
-21 -30 -8 0 -14 -7 -14 -15 0 -8 -7 -15 -15 -15 -8 0 -15 -9 -15 -20 0 -12
-7 -20 -16 -20 -9 0 -18 -9 -21 -20 -3 -11 -12 -20 -19 -20 -8 0 -14 -7 -14
-15 0 -8 -7 -15 -16 -15 -9 0 -18 -9 -21 -20 -3 -11 -12 -20 -19 -20 -8 0 -14
-7 -14 -15 0 -8 -7 -15 -16 -15 -9 0 -18 -9 -21 -20 -3 -11 -12 -20 -19 -20
-8 0 -14 -7 -14 -15 0 -8 -9 -15 -20 -15 -11 0 -20 -6 -20 -14 0 -8 -13 -17
-30 -21 -16 -4 -30 -13 -30 -21 0 -8 -9 -14 -20 -14 -13 0 -20 -7 -20 -20 0
-13 -7 -20 -20 -20 -11 0 -20 -7 -20 -15 0 -10 -10 -15 -30 -15 -21 0 -30 -5
-30 -16 0 -9 -9 -18 -20 -21 -11 -3 -20 -12 -20 -19 0 -9 -12 -14 -35 -14 -24
0 -35 -5 -35 -14 0 -8 -13 -17 -30 -21 -16 -4 -30 -13 -30 -21 0 -8 -10 -14
-25 -14 -15 0 -25 -6 -25 -14 0 -8 -14 -18 -32 -21 -17 -4 -38 -14 -46 -21 -7
-8 -29 -14 -48 -14 -23 0 -34 -5 -34 -14 0 -9 -15 -17 -40 -21 -25 -4 -40 -12
-40 -21 0 -10 -14 -14 -50 -14 -36 0 -50 -4 -50 -14 0 -9 -18 -15 -52 -19 -28
-4 -55 -12 -59 -19 -5 -8 -38 -14 -89 -16 -56 -3 -80 -8 -80 -17 0 -9 -31 -15
-107 -20 -62 -4 -111 -12 -115 -19 -10 -16 -526 -16 -536 0 -4 7 -54 15 -114
19 -78 5 -108 11 -108 20 0 9 -23 14 -82 17 -53 2 -83 8 -86 16 -2 6 -14 12
-27 12 -44 0 -85 13 -85 26 0 10 -14 14 -50 14 -37 0 -50 4 -50 15 0 10 -16
16 -50 21 -32 4 -50 11 -50 20 0 9 -12 14 -35 14 -23 0 -35 5 -35 14 0 8 -15
17 -35 20 -21 4 -35 13 -35 21 0 10 -11 15 -35 15 -24 0 -35 5 -35 15 0 8 -9
15 -20 15 -13 0 -20 7 -20 20 0 16 -7 20 -35 20 -24 0 -35 5 -35 15 0 8 -9 15
-20 15 -13 0 -20 7 -20 20 0 16 -7 20 -35 20 -24 0 -35 5 -35 15 0 8 -7 15
-15 15 -8 0 -15 9 -15 20 0 16 -7 20 -35 20 -23 0 -35 5 -35 14 0 7 -9 16 -20
19 -11 3 -20 12 -20 21 0 9 -7 16 -15 16 -8 0 -15 7 -15 15 0 8 -9 15 -20 15
-13 0 -20 7 -20 20 0 11 -7 20 -15 20 -8 0 -15 7 -15 15 0 8 -9 15 -20 15 -11
0 -28 9 -37 20 -10 11 -23 20 -30 20 -7 0 -13 6 -13 13 0 7 -9 20 -20 30 -11
9 -20 26 -20 37 0 13 -7 20 -20 20 -11 0 -20 7 -20 15 0 8 -7 15 -15 15 -8 0
-15 9 -15 20 0 12 -7 20 -16 20 -9 0 -18 9 -21 20 -3 11 -12 20 -19 20 -8 0
-14 7 -14 15 0 8 -6 15 -14 15 -8 0 -17 15 -20 35 -4 21 -13 35 -21 35 -8 0
-15 9 -15 20 0 11 -7 20 -15 20 -8 0 -15 6 -15 13 0 7 -9 20 -20 30 -11 9 -20
26 -20 37 0 11 -7 20 -15 20 -8 0 -15 7 -15 15 0 9 -7 18 -15 21 -8 3 -17 21
-21 40 -3 19 -12 34 -19 34 -7 0 -15 11 -17 25 -7 36 2 75 18 75 9 0 14 12 14
35 0 24 5 35 15 35 8 0 17 14 21 35 3 20 12 35 20 35 8 0 14 9 14 20 0 11 7
20 15 20 8 0 17 14 21 35 3 20 12 35 20 35 8 0 14 7 14 15 0 8 6 15 14 15 8 0
17 15 20 35 4 21 13 35 21 35 8 0 15 6 15 14 0 7 9 16 20 19 11 3 20 12 20 21
0 9 7 16 15 16 8 0 15 9 15 20 0 11 7 20 15 20 8 0 15 7 15 15 0 8 9 15 20 15
13 0 20 7 20 20 0 11 7 20 15 20 8 0 15 7 15 15 0 8 9 15 20 15 13 0 20 7 20
20 0 11 7 20 15 20 8 0 15 7 15 15 0 8 9 15 20 15 13 0 20 7 20 20 0 11 7 20
15 20 8 0 15 7 15 15 0 8 9 15 20 15 11 0 20 7 20 15 0 8 7 15 16 15 9 0 18 9
21 20 4 14 14 20 33 20 19 0 29 6 33 20 3 11 12 20 21 20 9 0 16 7 16 15 0 10
11 15 35 15 28 0 35 4 35 20 0 13 7 20 20 20 11 0 20 7 20 15 0 10 10 15 30
15 19 0 30 5 30 14 0 8 15 17 35 20 21 4 35 13 35 21 0 10 11 15 35 15 23 0
35 5 35 14 0 8 15 17 34 20 19 4 37 13 40 21 3 9 19 15 41 15 23 0 35 5 35 14
0 9 18 16 50 20 34 5 50 11 50 21 0 11 13 15 50 15 36 0 50 4 50 14 0 10 18
15 66 18 42 3 69 9 74 18 6 10 37 15 109 18 77 3 101 8 101 18 0 12 64 14 385
14 321 0 385 -2 385 -14z"/>
<path d="M2745 3342 c-11 -2 -23 -9 -26 -14 -4 -6 -36 -12 -73 -15 -46 -4 -66
-10 -66 -19 0 -8 -7 -14 -15 -14 -9 0 -18 -6 -21 -14 -3 -8 -19 -18 -35 -21
-16 -4 -29 -12 -29 -20 0 -7 -9 -15 -20 -18 -15 -4 -20 -14 -20 -36 0 -21 -5
-31 -15 -31 -8 0 -15 -7 -15 -16 0 -9 -9 -18 -20 -21 -17 -4 -20 -14 -20 -54
0 -37 -4 -49 -15 -49 -12 0 -15 -16 -15 -85 0 -69 3 -85 15 -85 10 0 15 -10
15 -32 0 -48 10 -78 26 -78 8 0 14 -9 14 -20 0 -11 7 -20 15 -20 10 0 15 -10
15 -30 0 -19 5 -30 14 -30 9 0 17 -15 21 -40 4 -23 12 -40 20 -40 16 0 22
-115 17 -297 -3 -85 -7 -113 -17 -113 -7 0 -16 -16 -20 -36 -3 -20 -13 -43
-21 -51 -8 -8 -14 -23 -14 -34 0 -10 -6 -19 -14 -19 -8 0 -17 -15 -20 -35 -4
-21 -13 -35 -21 -35 -11 0 -15 -13 -15 -50 0 -38 -4 -50 -15 -50 -12 0 -15
-17 -15 -90 0 -73 3 -90 15 -90 11 0 15 -11 15 -40 0 -28 6 -45 20 -57 11 -10
20 -23 20 -30 0 -7 6 -13 14 -13 8 0 17 -15 20 -35 4 -21 13 -35 21 -35 8 0
15 -6 15 -14 0 -8 13 -17 30 -21 17 -4 30 -13 30 -21 0 -9 11 -14 35 -14 23 0
35 -5 35 -14 0 -13 41 -26 85 -26 13 0 25 -6 27 -12 6 -16 86 -17 96 -2 4 6
37 15 75 18 48 6 67 12 67 22 0 8 9 14 20 14 11 0 20 6 20 14 0 8 15 17 35 20
21 4 35 13 35 21 0 8 7 15 15 15 8 0 15 6 15 13 0 7 9 20 20 30 11 9 20 26 20
37 0 11 6 20 14 20 8 0 17 16 21 37 4 21 12 41 18 45 8 5 13 48 15 118 3 92 1
111 -12 116 -8 3 -18 21 -22 40 -3 19 -12 34 -20 34 -9 0 -14 12 -14 35 0 24
-5 35 -15 35 -8 0 -17 14 -21 35 -3 20 -12 35 -20 35 -10 0 -14 14 -14 50 0
36 -4 50 -14 50 -19 0 -30 115 -24 246 3 77 7 98 21 105 12 7 17 23 17 54 0
33 4 45 15 45 8 0 15 9 15 20 0 11 7 20 15 20 8 0 17 14 21 35 3 19 12 35 19
35 7 0 14 19 18 47 3 27 11 50 21 55 23 13 24 178 1 178 -10 0 -16 16 -21 50
-4 32 -11 50 -20 50 -9 0 -14 12 -14 35 0 28 -4 35 -20 35 -13 0 -20 7 -20 20
0 11 -7 20 -15 20 -8 0 -15 7 -15 15 0 8 -9 15 -20 15 -11 0 -20 7 -20 15 0 8
-14 17 -35 21 -19 3 -35 12 -35 19 0 7 -19 14 -46 18 -26 2 -49 9 -53 14 -7
12 -88 22 -116 15z m88 -242 c17 0 27 -5 27 -15 0 -8 9 -15 20 -15 11 0 20 -7
20 -15 0 -8 7 -15 15 -15 12 0 15 -17 15 -90 0 -73 -3 -90 -15 -90 -8 0 -15
-7 -15 -16 0 -9 -9 -18 -20 -21 -11 -3 -20 -12 -20 -19 0 -11 -19 -14 -85 -14
-69 0 -85 3 -85 15 0 8 -9 15 -20 15 -13 0 -20 7 -20 20 0 11 -6 20 -14 20
-22 0 -34 93 -20 148 4 12 13 22 20 22 8 0 14 9 14 20 0 13 7 20 20 20 11 0
20 6 20 14 0 15 55 26 95 20 11 -2 32 -4 48 -4z m-4 -1216 c17 -4 31 -13 31
-20 0 -8 9 -14 20 -14 11 0 20 -6 20 -14 0 -8 7 -16 15 -20 12 -4 15 -24 15
-91 0 -78 -2 -85 -20 -85 -11 0 -20 -6 -20 -14 0 -7 -9 -16 -20 -19 -11 -3
-20 -12 -20 -21 0 -13 -12 -16 -65 -16 -49 0 -65 3 -65 14 0 8 -15 17 -35 20
-21 4 -35 13 -35 21 0 8 -6 15 -14 15 -9 0 -15 15 -18 43 -7 64 2 127 18 127
8 0 14 9 14 20 0 13 7 20 20 20 11 0 20 6 20 14 0 22 76 32 139 20z"/>
</g>
</svg>
